<svg width="271" height="232" viewBox="0 0 271 232" fill="none" xmlns="http://www.w3.org/2000/svg">
<g filter="url(#filter0_d_2005_78)">
<g filter="url(#filter1_f_2005_78)">
<path d="M68.3198 42.5492C68.3198 34.7274 71.3747 27.2149 76.8335 21.6128L85.1639 13.0635C90.8107 7.26842 98.559 4 106.65 4H119.671V159H106.822C98.6297 159 90.7937 155.65 85.1336 149.727L76.6313 140.83C71.2968 135.248 68.3198 127.825 68.3198 120.103V42.5492Z" fill="url(#paint0_linear_2005_78)"/>
<path d="M106.65 4.5H119.171V158.5H106.822C98.7661 158.5 91.0603 155.206 85.4946 149.382L76.9927 140.485C71.7471 134.996 68.8199 127.696 68.8198 120.104V42.5488C68.8199 34.8575 71.8242 27.4705 77.1919 21.9619L85.522 13.4121C91.0746 7.71378 98.6936 4.5001 106.65 4.5Z" stroke="black" stroke-opacity="0.2"/>
</g>
<g filter="url(#filter2_f_2005_78)">
<path d="M200.977 42.5492C200.977 34.7274 197.923 27.2149 192.464 21.6128L184.133 13.0635C178.487 7.26842 170.738 4 162.647 4H149.626V159H162.475C170.668 159 178.504 155.65 184.164 149.727L192.666 140.83C198.001 135.248 200.977 127.825 200.977 120.103V42.5492Z" fill="url(#paint1_linear_2005_78)"/>
<path d="M162.647 4.5H150.126V158.5H162.476C170.531 158.5 178.237 155.206 183.803 149.382L192.305 140.485C197.55 134.996 200.477 127.696 200.477 120.104V42.5488C200.477 34.8575 197.473 27.4705 192.105 21.9619L183.775 13.4121C178.223 7.71378 170.604 4.5001 162.647 4.5Z" stroke="black" stroke-opacity="0.2"/>
</g>
</g>
<g filter="url(#filter3_di_2005_78)">
<path d="M8.81201 212.167V206.147H16.7661C17.894 206.147 18.8022 205.964 19.4907 205.598C20.1938 205.231 20.7065 204.733 21.0288 204.104C21.3657 203.459 21.5342 202.727 21.5342 201.906C21.5342 201.042 21.3657 200.244 21.0288 199.511C20.7065 198.764 20.1938 198.164 19.4907 197.709C18.8022 197.255 17.894 197.028 16.7661 197.028H11.4707V223H4V191.008H16.7661C19.3149 191.008 21.5049 191.477 23.3359 192.414C25.1816 193.352 26.5952 194.641 27.5767 196.281C28.5728 197.907 29.0708 199.768 29.0708 201.862C29.0708 203.928 28.5728 205.737 27.5767 207.29C26.5952 208.828 25.1816 210.029 23.3359 210.893C21.5049 211.743 19.3149 212.167 16.7661 212.167H8.81201ZM31.5977 210.915C31.5977 208.586 32.0371 206.513 32.916 204.697C33.7949 202.866 35.0767 201.423 36.7612 200.368C38.4604 199.313 40.5332 198.786 42.9795 198.786C45.4551 198.786 47.5425 199.313 49.2417 200.368C50.9409 201.423 52.2227 202.866 53.0869 204.697C53.9658 206.513 54.4053 208.586 54.4053 210.915V211.333C54.4053 213.647 53.9658 215.72 53.0869 217.551C52.2227 219.382 50.9409 220.825 49.2417 221.879C47.5571 222.919 45.4844 223.439 43.0234 223.439C40.5625 223.439 38.4824 222.919 36.7832 221.879C35.084 220.825 33.7949 219.382 32.916 217.551C32.0371 215.72 31.5977 213.647 31.5977 211.333V210.915ZM38.7607 211.333C38.7607 212.519 38.8853 213.596 39.1343 214.562C39.3979 215.529 39.8374 216.291 40.4526 216.848C41.0825 217.404 41.9395 217.683 43.0234 217.683C44.0928 217.683 44.9351 217.404 45.5503 216.848C46.1802 216.291 46.6196 215.529 46.8687 214.562C47.1323 213.596 47.2642 212.519 47.2642 211.333V210.915C47.2642 209.758 47.1323 208.696 46.8687 207.729C46.6196 206.762 46.1802 205.993 45.5503 205.422C44.9351 204.836 44.0781 204.543 42.9795 204.543C41.9102 204.543 41.0679 204.836 40.4526 205.422C39.8374 205.993 39.3979 206.762 39.1343 207.729C38.8853 208.696 38.7607 209.758 38.7607 210.915V211.333ZM69.5664 199.226H74.0269L72.6206 207.399L67.9844 223H64.3149L64.9082 216.101L69.5664 199.226ZM66.1606 215.991L66.3584 223H62.0078L56.207 199.226H63.0845L66.1606 215.991ZM81.1021 199.226H87.9575L82.2007 223H77.8281L78.0479 215.639L81.1021 199.226ZM79.3003 216.035L79.8716 223H76.1802L71.6099 207.443L70.2256 199.226H74.6201L79.3003 216.035ZM102.108 223.439C99.5591 223.439 97.3765 222.912 95.5601 221.857C93.7583 220.803 92.3813 219.404 91.4292 217.661C90.4771 215.917 90.001 214.006 90.001 211.926V211.091C90.001 208.762 90.4404 206.667 91.3193 204.807C92.1982 202.946 93.48 201.481 95.1646 200.412C96.8491 199.328 98.9072 198.786 101.339 198.786C103.639 198.786 105.58 199.27 107.162 200.236C108.758 201.188 109.974 202.543 110.809 204.301C111.644 206.044 112.062 208.11 112.062 210.498V213.508H92.8574V208.806H105.052V208.234C105.052 207.473 104.913 206.813 104.635 206.257C104.356 205.7 103.939 205.275 103.382 204.982C102.84 204.689 102.145 204.543 101.295 204.543C100.226 204.543 99.3906 204.843 98.79 205.444C98.1895 206.03 97.7646 206.821 97.5156 207.817C97.2666 208.798 97.1421 209.89 97.1421 211.091V211.926C97.1421 213.068 97.3545 214.072 97.7793 214.936C98.2188 215.8 98.8413 216.474 99.647 216.958C100.467 217.426 101.441 217.661 102.569 217.661C103.639 217.661 104.657 217.47 105.624 217.089C106.605 216.694 107.44 216.064 108.128 215.2L111.49 219.221C110.743 220.275 109.571 221.242 107.975 222.121C106.393 223 104.437 223.439 102.108 223.439ZM122.455 223H115.313V199.226H122.015L122.455 205.048V223ZM129.31 205.993C129.002 205.964 128.607 205.927 128.124 205.883C127.655 205.839 127.252 205.817 126.915 205.817C125.772 205.817 124.835 205.986 124.103 206.323C123.385 206.645 122.85 207.143 122.499 207.817C122.162 208.476 121.986 209.311 121.971 210.322L120.631 209.509C120.631 207.399 120.902 205.539 121.444 203.928C121.986 202.316 122.755 201.057 123.751 200.148C124.762 199.24 125.978 198.786 127.398 198.786C127.735 198.786 128.094 198.808 128.475 198.852C128.856 198.896 129.171 198.962 129.42 199.05L129.31 205.993ZM148.514 212.167V206.147H156.468C157.596 206.147 158.504 205.964 159.193 205.598C159.896 205.231 160.409 204.733 160.731 204.104C161.068 203.459 161.236 202.727 161.236 201.906C161.236 201.042 161.068 200.244 160.731 199.511C160.409 198.764 159.896 198.164 159.193 197.709C158.504 197.255 157.596 197.028 156.468 197.028H151.173V223H143.702V191.008H156.468C159.017 191.008 161.207 191.477 163.038 192.414C164.884 193.352 166.297 194.641 167.279 196.281C168.275 197.907 168.773 199.768 168.773 201.862C168.773 203.928 168.275 205.737 167.279 207.29C166.297 208.828 164.884 210.029 163.038 210.893C161.207 211.743 159.017 212.167 156.468 212.167H148.514ZM184.791 207.246C184.791 206.25 184.557 205.466 184.088 204.895C183.634 204.309 182.879 204.016 181.825 204.016C181.224 204.016 180.711 204.111 180.287 204.301C179.876 204.477 179.562 204.755 179.342 205.136C179.122 205.502 179.012 205.971 179.012 206.542H171.871C171.871 205.063 172.296 203.745 173.146 202.587C173.995 201.416 175.189 200.493 176.727 199.819C178.28 199.13 180.104 198.786 182.198 198.786C184.073 198.786 185.743 199.101 187.208 199.731C188.688 200.361 189.852 201.306 190.702 202.565C191.551 203.825 191.976 205.4 191.976 207.29V217.001C191.976 218.54 192.064 219.711 192.24 220.517C192.416 221.308 192.665 222.004 192.987 222.604V223H185.802C185.465 222.282 185.208 221.396 185.033 220.341C184.872 219.287 184.791 218.195 184.791 217.067V207.246ZM185.692 212.453H182.484C181.019 212.453 179.986 212.797 179.386 213.486C178.785 214.16 178.485 214.943 178.485 215.837C178.485 216.496 178.719 217.038 179.188 217.463C179.671 217.888 180.301 218.1 181.078 218.1C181.927 218.1 182.652 217.939 183.253 217.617C183.854 217.294 184.315 216.914 184.637 216.474C184.959 216.02 185.113 215.61 185.099 215.244L186.791 218.276C186.542 218.862 186.227 219.455 185.846 220.056C185.465 220.656 184.989 221.213 184.417 221.726C183.846 222.238 183.15 222.656 182.33 222.978C181.524 223.286 180.558 223.439 179.43 223.439C177.95 223.439 176.588 223.139 175.343 222.539C174.112 221.923 173.131 221.081 172.398 220.012C171.681 218.928 171.322 217.683 171.322 216.276C171.322 213.801 172.23 211.875 174.046 210.498C175.877 209.121 178.661 208.432 182.396 208.432H185.692V212.453ZM210.213 199.226H217.376V223H210.675L210.213 217.221V199.226ZM212.894 212.277C212.894 214.416 212.564 216.328 211.905 218.012C211.246 219.697 210.265 221.022 208.961 221.989C207.657 222.956 206.046 223.439 204.127 223.439C201.783 223.439 199.879 222.758 198.414 221.396C196.949 220.019 196.217 217.756 196.217 214.606V199.226H203.358V214.65C203.358 215.339 203.475 215.91 203.709 216.364C203.958 216.804 204.31 217.133 204.764 217.353C205.218 217.558 205.753 217.661 206.368 217.661C207.555 217.661 208.478 217.434 209.137 216.979C209.796 216.511 210.265 215.874 210.543 215.068C210.821 214.248 210.96 213.332 210.96 212.321L212.894 212.277ZM230.912 223.439C228.641 223.439 226.722 223.029 225.155 222.209C223.602 221.389 222.423 220.356 221.617 219.111C220.826 217.866 220.431 216.599 220.431 215.31H227.154C227.198 216.042 227.389 216.643 227.726 217.111C228.077 217.565 228.539 217.91 229.11 218.144C229.696 218.364 230.355 218.474 231.087 218.474C231.791 218.474 232.376 218.386 232.845 218.21C233.314 218.034 233.666 217.785 233.9 217.463C234.149 217.126 234.273 216.738 234.273 216.298C234.273 215.888 234.142 215.544 233.878 215.266C233.629 214.973 233.167 214.702 232.494 214.453C231.82 214.189 230.86 213.925 229.615 213.662C228.033 213.325 226.605 212.856 225.331 212.255C224.056 211.64 223.045 210.849 222.298 209.882C221.566 208.901 221.2 207.714 221.2 206.323C221.2 204.99 221.581 203.752 222.342 202.609C223.104 201.452 224.21 200.529 225.66 199.841C227.11 199.138 228.861 198.786 230.912 198.786C233.021 198.786 234.845 199.116 236.383 199.775C237.921 200.434 239.1 201.35 239.92 202.521C240.755 203.679 241.173 205.019 241.173 206.542H234.032C234.032 205.649 233.783 204.96 233.285 204.477C232.801 203.979 232.003 203.73 230.89 203.73C230.333 203.73 229.835 203.825 229.396 204.016C228.956 204.206 228.612 204.47 228.363 204.807C228.128 205.129 228.011 205.517 228.011 205.971C228.011 206.381 228.15 206.748 228.429 207.07C228.707 207.377 229.139 207.648 229.725 207.883C230.311 208.103 231.087 208.3 232.054 208.476C233.695 208.784 235.204 209.208 236.581 209.75C237.972 210.292 239.085 211.062 239.92 212.058C240.77 213.054 241.195 214.394 241.195 216.079C241.195 217.47 240.77 218.73 239.92 219.858C239.085 220.971 237.899 221.85 236.361 222.495C234.823 223.125 233.006 223.439 230.912 223.439ZM256.224 223.439C253.675 223.439 251.493 222.912 249.676 221.857C247.875 220.803 246.498 219.404 245.545 217.661C244.593 215.917 244.117 214.006 244.117 211.926V211.091C244.117 208.762 244.557 206.667 245.436 204.807C246.314 202.946 247.596 201.481 249.281 200.412C250.965 199.328 253.023 198.786 255.455 198.786C257.755 198.786 259.696 199.27 261.278 200.236C262.875 201.188 264.09 202.543 264.925 204.301C265.76 206.044 266.178 208.11 266.178 210.498V213.508H246.974V208.806H259.168V208.234C259.168 207.473 259.029 206.813 258.751 206.257C258.473 205.7 258.055 205.275 257.499 204.982C256.957 204.689 256.261 204.543 255.411 204.543C254.342 204.543 253.507 204.843 252.906 205.444C252.306 206.03 251.881 206.821 251.632 207.817C251.383 208.798 251.258 209.89 251.258 211.091V211.926C251.258 213.068 251.471 214.072 251.896 214.936C252.335 215.8 252.958 216.474 253.763 216.958C254.583 217.426 255.558 217.661 256.686 217.661C257.755 217.661 258.773 217.47 259.74 217.089C260.721 216.694 261.556 216.064 262.245 215.2L265.606 219.221C264.859 220.275 263.688 221.242 262.091 222.121C260.509 223 258.553 223.439 256.224 223.439Z" fill="#0FC957"/>
</g>
<defs>
<filter id="filter0_d_2005_78" x="64.3198" y="4" width="140.658" height="163" filterUnits="userSpaceOnUse" color-interpolation-filters="sRGB">
<feFlood flood-opacity="0" result="BackgroundImageFix"/>
<feColorMatrix in="SourceAlpha" type="matrix" values="0 0 0 0 0 0 0 0 0 0 0 0 0 0 0 0 0 0 127 0" result="hardAlpha"/>
<feOffset dy="4"/>
<feGaussianBlur stdDeviation="2"/>
<feComposite in2="hardAlpha" operator="out"/>
<feColorMatrix type="matrix" values="0 0 0 0 0 0 0 0 0 0 0 0 0 0 0 0 0 0 0.25 0"/>
<feBlend mode="normal" in2="BackgroundImageFix" result="effect1_dropShadow_2005_78"/>
<feBlend mode="normal" in="SourceGraphic" in2="effect1_dropShadow_2005_78" result="shape"/>
</filter>
<filter id="filter1_f_2005_78" x="64.3198" y="0" width="59.3514" height="163" filterUnits="userSpaceOnUse" color-interpolation-filters="sRGB">
<feFlood flood-opacity="0" result="BackgroundImageFix"/>
<feBlend mode="normal" in="SourceGraphic" in2="BackgroundImageFix" result="shape"/>
<feGaussianBlur stdDeviation="2" result="effect1_foregroundBlur_2005_78"/>
</filter>
<filter id="filter2_f_2005_78" x="145.626" y="0" width="59.3514" height="163" filterUnits="userSpaceOnUse" color-interpolation-filters="sRGB">
<feFlood flood-opacity="0" result="BackgroundImageFix"/>
<feBlend mode="normal" in="SourceGraphic" in2="BackgroundImageFix" result="shape"/>
<feGaussianBlur stdDeviation="2" result="effect1_foregroundBlur_2005_78"/>
</filter>
<filter id="filter3_di_2005_78" x="0" y="191.008" width="270.178" height="40.4316" filterUnits="userSpaceOnUse" color-interpolation-filters="sRGB">
<feFlood flood-opacity="0" result="BackgroundImageFix"/>
<feColorMatrix in="SourceAlpha" type="matrix" values="0 0 0 0 0 0 0 0 0 0 0 0 0 0 0 0 0 0 127 0" result="hardAlpha"/>
<feOffset dy="4"/>
<feGaussianBlur stdDeviation="2"/>
<feComposite in2="hardAlpha" operator="out"/>
<feColorMatrix type="matrix" values="0 0 0 0 0 0 0 0 0 0 0 0 0 0 0 0 0 0 0.25 0"/>
<feBlend mode="normal" in2="BackgroundImageFix" result="effect1_dropShadow_2005_78"/>
<feBlend mode="normal" in="SourceGraphic" in2="effect1_dropShadow_2005_78" result="shape"/>
<feColorMatrix in="SourceAlpha" type="matrix" values="0 0 0 0 0 0 0 0 0 0 0 0 0 0 0 0 0 0 127 0" result="hardAlpha"/>
<feOffset dy="2"/>
<feGaussianBlur stdDeviation="1"/>
<feComposite in2="hardAlpha" operator="arithmetic" k2="-1" k3="1"/>
<feColorMatrix type="matrix" values="0 0 0 0 0 0 0 0 0 0 0 0 0 0 0 0 0 0 0.25 0"/>
<feBlend mode="luminosity" in2="shape" result="effect2_innerShadow_2005_78"/>
</filter>
<linearGradient id="paint0_linear_2005_78" x1="82.0135" y1="144.017" x2="64.7724" y2="119.197" gradientUnits="userSpaceOnUse">
<stop stop-color="#08632B"/>
<stop stop-color="#0FC957"/>
</linearGradient>
<linearGradient id="paint1_linear_2005_78" x1="187.284" y1="144.017" x2="204.525" y2="119.197" gradientUnits="userSpaceOnUse">
<stop stop-color="#08632B"/>
<stop stop-color="#0FC957"/>
</linearGradient>
</defs>
</svg>
